<?xml version="1.0" encoding="utf-8"?>
<!-- Generator: Adobe Illustrator 16.0.0, SVG Export Plug-In . SVG Version: 6.00 Build 0)  -->
<!DOCTYPE svg PUBLIC "-//W3C//DTD SVG 1.1//EN" "http://www.w3.org/Graphics/SVG/1.1/DTD/svg11.dtd">
<svg version="1.1" id="Layer_1" xmlns="http://www.w3.org/2000/svg" xmlns:xlink="http://www.w3.org/1999/xlink" x="0px" y="0px"
	 width="710px" height="710px" viewBox="46.5 46.5 710 710" enable-background="new 46.5 46.5 710 710" xml:space="preserve">
<title>file_type_numpy</title>
<polygon fill="#4DABCF" points="353.594,194.619 237.519,135.568 110.119,199.644 229.344,259.969 "/>
<polygon fill="#4DABCF" points="406.818,221.668 528.519,283.568 402.243,347.469 282.844,287.043 "/>
<polygon fill="#4DABCF" points="569.344,136.469 694.368,199.644 582.568,256.219 460.594,194.244 "/>
<polygon fill="#4DABCF" points="515.544,109.244 402.969,52.394 291.644,108.369 407.618,167.318 "/>
<polygon fill="#4DABCF" points="427.544,597.618 427.544,752.394 563.894,683.844 563.743,528.993 "/>
<polygon fill="#4DABCF" points="563.693,474.969 563.544,321.743 427.544,389.868 427.544,543.144 "/>
<polygon fill="#4DABCF" points="727.394,446.243 727.394,601.618 611.094,660.094 611.019,505.443 "/>
<polygon fill="#4DABCF" points="727.394,391.919 727.394,239.668 610.868,298.043 610.969,451.568 "/>
<path fill="#4D77CF" d="M379.394,389.894l-91.85-46.525v201.125c0,0-112.325-240.85-122.65-262.475
	c-2.194-2.827-5.031-5.089-8.275-6.6c-20.2-10.525-79.225-40.775-79.225-40.775v355.25l81.65,44v-185.7
	c0,0,111.125,215.175,112.25,217.5c5.722,12.541,13.958,23.773,24.2,33c15.875,10.575,83.925,51.825,83.925,51.825L379.394,389.894z
	"/>
</svg>
